<?xml version="1.0" encoding="UTF-8" standalone="no"?>
<!-- Generator: Adobe Illustrator 16.0.0, SVG Export Plug-In . SVG Version: 6.00 Build 0)  -->

<svg
   xmlns:dc="http://purl.org/dc/elements/1.1/"
   xmlns:cc="http://creativecommons.org/ns#"
   xmlns:rdf="http://www.w3.org/1999/02/22-rdf-syntax-ns#"
   xmlns:svg="http://www.w3.org/2000/svg"
   xmlns="http://www.w3.org/2000/svg"
   xmlns:sodipodi="http://sodipodi.sourceforge.net/DTD/sodipodi-0.dtd"
   xmlns:inkscape="http://www.inkscape.org/namespaces/inkscape"
   version="1.1"
   id="Layer_1"
   x="0px"
   y="0px"
   width="212.038px"
   height="49.592px"
   viewBox="0 0 212.038 49.592"
   enable-background="new 0 0 212.038 49.592"
   xml:space="preserve"
   sodipodi:docname="dot-blue.svg"
   inkscape:version="0.92.4 (5da689c313, 2019-01-14)"><metadata
   id="metadata912"><rdf:RDF><cc:Work
       rdf:about=""><dc:format>image/svg+xml</dc:format><dc:type
         rdf:resource="http://purl.org/dc/dcmitype/StillImage" /></cc:Work></rdf:RDF></metadata><defs
   id="defs910" /><sodipodi:namedview
   pagecolor="#ffffff"
   bordercolor="#666666"
   borderopacity="1"
   objecttolerance="10"
   gridtolerance="10"
   guidetolerance="10"
   inkscape:pageopacity="0"
   inkscape:pageshadow="2"
   inkscape:window-width="1920"
   inkscape:window-height="1017"
   id="namedview908"
   showgrid="false"
   inkscape:zoom="3.3956179"
   inkscape:cx="136.42464"
   inkscape:cy="-4.6763054"
   inkscape:window-x="-8"
   inkscape:window-y="-8"
   inkscape:window-maximized="1"
   inkscape:current-layer="g905" />
<g
   id="g905">
	<g
   id="g843"
   style="fill:#49a078;fill-opacity:1">
		<circle
   fill="#43C4DB"
   cx="5.221"
   cy="44.368"
   r="5.224"
   id="circle815"
   style="fill:#49a078;fill-opacity:1" />
		<circle
   fill="#43C4DB"
   cx="20.729"
   cy="44.368"
   r="5.224"
   id="circle817"
   style="fill:#49a078;fill-opacity:1" />
		<circle
   fill="#43C4DB"
   cx="36.236"
   cy="44.368"
   r="5.224"
   id="circle819"
   style="fill:#49a078;fill-opacity:1" />
		<path
   fill="#43C4DB"
   d="M51.742,39.144c2.885,0,5.221,2.338,5.221,5.222c0,2.885-2.336,5.227-5.221,5.227    c-2.885,0-5.223-2.342-5.223-5.227C46.519,41.481,48.857,39.144,51.742,39.144z"
   id="path821"
   style="fill:#49a078;fill-opacity:1" />
		<circle
   fill="#43C4DB"
   cx="67.25"
   cy="44.368"
   r="5.224"
   id="circle823"
   style="fill:#49a078;fill-opacity:1" />
		<circle
   fill="#43C4DB"
   cx="82.758"
   cy="44.368"
   r="5.224"
   id="circle825"
   style="fill:#49a078;fill-opacity:1" />
		<path
   fill="#43C4DB"
   d="M113.771,39.144c2.885,0,5.225,2.338,5.225,5.222c0,2.885-2.339,5.227-5.225,5.227    c-2.881,0-5.221-2.342-5.221-5.227C108.55,41.481,110.89,39.144,113.771,39.144z"
   id="path827"
   style="fill:#49a078;fill-opacity:1" />
		<path
   fill="#43C4DB"
   d="M98.265,39.144c2.887,0,5.221,2.338,5.221,5.222c0,2.885-2.334,5.227-5.221,5.227    c-2.885,0-5.223-2.342-5.223-5.227C93.042,41.481,95.38,39.144,98.265,39.144z"
   id="path829"
   style="fill:#49a078;fill-opacity:1" />
		<path
   fill="#43C4DB"
   d="M129.281,39.144c2.885,0,5.223,2.338,5.223,5.222c0,2.885-2.338,5.227-5.223,5.227    c-2.885,0-5.225-2.342-5.225-5.227C124.056,41.481,126.396,39.144,129.281,39.144z"
   id="path831"
   style="fill:#49a078;fill-opacity:1" />
		<circle
   fill="#43C4DB"
   cx="144.788"
   cy="44.368"
   r="5.224"
   id="circle833"
   style="fill:#49a078;fill-opacity:1" />
		<circle
   fill="#43C4DB"
   cx="160.296"
   cy="44.368"
   r="5.224"
   id="circle835"
   style="fill:#49a078;fill-opacity:1" />
		<circle
   fill="#43C4DB"
   cx="175.802"
   cy="44.368"
   r="5.224"
   id="circle837"
   style="fill:#49a078;fill-opacity:1" />
		<circle
   fill="#43C4DB"
   cx="191.31"
   cy="44.368"
   r="5.224"
   id="circle839"
   style="fill:#49a078;fill-opacity:1" />
		<circle
   fill="#43C4DB"
   cx="206.815"
   cy="44.368"
   r="5.224"
   id="circle841"
   style="fill:#49a078;fill-opacity:1" />
	</g>
	<g
   id="g873"
   style="fill:#49a078;fill-opacity:1">
		<path
   fill="#43C4DB"
   d="M5.221,19.571c2.885,0,5.221,2.34,5.221,5.221c0,2.887-2.336,5.229-5.221,5.229    C2.336,30.021,0,27.679,0,24.792C0,21.911,2.336,19.571,5.221,19.571z"
   id="path845"
   style="fill:#49a078;fill-opacity:1" />
		<path
   fill="#43C4DB"
   d="M20.729,19.571c2.885,0,5.223,2.34,5.223,5.221c0,2.887-2.338,5.229-5.223,5.229    c-2.885,0-5.223-2.342-5.223-5.229C15.506,21.911,17.844,19.571,20.729,19.571z"
   id="path847"
   style="fill:#49a078;fill-opacity:1" />
		<path
   fill="#43C4DB"
   d="M36.236,19.571c2.885,0,5.223,2.34,5.223,5.221c0,2.887-2.338,5.229-5.223,5.229    c-2.885,0-5.225-2.342-5.225-5.229C31.012,21.911,33.351,19.571,36.236,19.571z"
   id="path849"
   style="fill:#49a078;fill-opacity:1" />
		<path
   fill="#43C4DB"
   d="M51.742,19.571c2.885,0,5.221,2.34,5.221,5.221c0,2.887-2.336,5.229-5.221,5.229    c-2.885,0-5.223-2.342-5.223-5.229C46.519,21.911,48.857,19.571,51.742,19.571z"
   id="path851"
   style="fill:#49a078;fill-opacity:1" />
		<path
   fill="#43C4DB"
   d="M67.25,19.571c2.885,0,5.225,2.34,5.225,5.221c0,2.887-2.34,5.229-5.225,5.229    c-2.885,0-5.221-2.342-5.221-5.229C62.029,21.911,64.365,19.571,67.25,19.571z"
   id="path853"
   style="fill:#49a078;fill-opacity:1" />
		<path
   fill="#43C4DB"
   d="M82.758,19.571c2.883,0,5.223,2.34,5.223,5.221c0,2.887-2.34,5.229-5.223,5.229    c-2.885,0-5.221-2.342-5.221-5.229C77.537,21.911,79.873,19.571,82.758,19.571z"
   id="path855"
   style="fill:#49a078;fill-opacity:1" />
		<path
   fill="#43C4DB"
   d="M113.771,19.571c2.885,0,5.225,2.34,5.225,5.221c0,2.887-2.339,5.229-5.225,5.229    c-2.881,0-5.221-2.342-5.221-5.229C108.55,21.911,110.89,19.571,113.771,19.571z"
   id="path857"
   style="fill:#49a078;fill-opacity:1" />
		<path
   fill="#43C4DB"
   d="M98.265,19.571c2.887,0,5.221,2.34,5.221,5.221c0,2.887-2.334,5.229-5.221,5.229    c-2.885,0-5.223-2.342-5.223-5.229C93.042,21.911,95.38,19.571,98.265,19.571z"
   id="path859"
   style="fill:#49a078;fill-opacity:1" />
		<path
   fill="#43C4DB"
   d="M129.281,19.571c2.885,0,5.223,2.34,5.223,5.221c0,2.887-2.338,5.229-5.223,5.229    c-2.885,0-5.225-2.342-5.225-5.229C124.056,21.911,126.396,19.571,129.281,19.571z"
   id="path861"
   style="fill:#49a078;fill-opacity:1" />
		<path
   fill="#43C4DB"
   d="M144.788,19.571c2.883,0,5.225,2.34,5.225,5.221c0,2.887-2.342,5.229-5.225,5.229    c-2.887,0-5.221-2.342-5.221-5.229C139.567,21.911,141.901,19.571,144.788,19.571z"
   id="path863"
   style="fill:#49a078;fill-opacity:1" />
		<path
   fill="#43C4DB"
   d="M160.296,19.571c2.885,0,5.221,2.34,5.221,5.221c0,2.887-2.336,5.229-5.221,5.229    s-5.223-2.342-5.223-5.229C155.073,21.911,157.411,19.571,160.296,19.571z"
   id="path865"
   style="fill:#49a078;fill-opacity:1" />
		<path
   fill="#43C4DB"
   d="M175.802,19.571c2.885,0,5.223,2.34,5.223,5.221c0,2.887-2.338,5.229-5.223,5.229    c-2.887,0-5.221-2.342-5.221-5.229C170.581,21.911,172.915,19.571,175.802,19.571z"
   id="path867"
   style="fill:#49a078;fill-opacity:1" />
		<path
   fill="#43C4DB"
   d="M191.31,19.571c2.885,0,5.221,2.34,5.221,5.221c0,2.887-2.336,5.229-5.221,5.229s-5.223-2.342-5.223-5.229    C186.087,21.911,188.425,19.571,191.31,19.571z"
   id="path869"
   style="fill:#49a078;fill-opacity:1" />
		<path
   fill="#43C4DB"
   d="M206.815,19.571c2.887,0,5.223,2.34,5.223,5.221c0,2.887-2.336,5.229-5.223,5.229    c-2.883,0-5.223-2.342-5.223-5.229C201.592,21.911,203.932,19.571,206.815,19.571z"
   id="path871"
   style="fill:#49a078;fill-opacity:1" />
	</g>
	<g
   id="g903"
   style="fill:#49a078;fill-opacity:1">
		<circle
   fill="#43C4DB"
   cx="5.221"
   cy="5.225"
   r="5.225"
   id="circle875"
   style="fill:#49a078;fill-opacity:1" />
		<circle
   fill="#43C4DB"
   cx="20.729"
   cy="5.225"
   r="5.225"
   id="circle877"
   style="fill:#49a078;fill-opacity:1" />
		<circle
   fill="#43C4DB"
   cx="36.236"
   cy="5.225"
   r="5.225"
   id="circle879"
   style="fill:#49a078;fill-opacity:1" />
		<circle
   fill="#43C4DB"
   cx="51.742"
   cy="5.225"
   r="5.225"
   id="circle881"
   style="fill:#49a078;fill-opacity:1" />
		<circle
   fill="#43C4DB"
   cx="67.25"
   cy="5.225"
   r="5.225"
   id="circle883"
   style="fill:#49a078;fill-opacity:1" />
		<circle
   fill="#43C4DB"
   cx="82.758"
   cy="5.225"
   r="5.225"
   id="circle885"
   style="fill:#49a078;fill-opacity:1" />
		<path
   fill="#43C4DB"
   d="M113.771,0c2.885,0,5.225,2.34,5.225,5.223c0,2.885-2.339,5.227-5.225,5.227    c-2.881,0-5.221-2.342-5.221-5.227C108.55,2.34,110.89,0,113.771,0z"
   id="path887"
   style="fill:#49a078;fill-opacity:1" />
		<path
   fill="#43C4DB"
   d="M98.265,0c2.887,0,5.221,2.34,5.221,5.223c0,2.885-2.334,5.227-5.221,5.227    c-2.885,0-5.223-2.342-5.223-5.227C93.042,2.34,95.38,0,98.265,0z"
   id="path889"
   style="fill:#49a078;fill-opacity:1" />
		<circle
   fill="#43C4DB"
   cx="129.281"
   cy="5.225"
   r="5.225"
   id="circle891"
   style="fill:#49a078;fill-opacity:1" />
		<circle
   fill="#43C4DB"
   cx="144.788"
   cy="5.225"
   r="5.225"
   id="circle893"
   style="fill:#49a078;fill-opacity:1" />
		<circle
   fill="#43C4DB"
   cx="160.296"
   cy="5.225"
   r="5.225"
   id="circle895"
   style="fill:#49a078;fill-opacity:1" />
		<circle
   fill="#43C4DB"
   cx="175.802"
   cy="5.225"
   r="5.225"
   id="circle897"
   style="fill:#49a078;fill-opacity:1" />
		<circle
   fill="#43C4DB"
   cx="191.31"
   cy="5.225"
   r="5.225"
   id="circle899"
   style="fill:#49a078;fill-opacity:1" />
		<circle
   fill="#43C4DB"
   cx="206.815"
   cy="5.225"
   r="5.225"
   id="circle901"
   style="fill:#49a078;fill-opacity:1" />
	</g>
</g>
</svg>